<svg width="48" height="48" viewBox="0 0 48 48" fill="none" xmlns="http://www.w3.org/2000/svg">
<path d="M4 39.9998H4.02087" stroke="#00C35A" stroke-width="3.5" stroke-linecap="round" stroke-linejoin="round"/>
<path d="M4 32.2002C5.92178 32.5922 7.68588 33.5406 9.07276 34.9275C10.4596 36.3144 11.4081 38.0785 11.8 40.0002M4 24.1002C8.06158 24.552 11.8486 26.3723 14.7382 29.262C17.6279 32.1517 19.4483 35.9387 19.9 40.0002M4 16.0002V12.0002C4 10.9394 4.42143 9.92196 5.17157 9.17182C5.92172 8.42167 6.93913 8.00024 8 8.00024H40C41.0609 8.00024 42.0783 8.42167 42.8284 9.17182C43.5786 9.92196 44 10.9394 44 12.0002V36.0002C44 37.0611 43.5786 38.0785 42.8284 38.8287C42.0783 39.5788 41.0609 40.0002 40 40.0002H28" stroke="#00C35A" stroke-width="3.5" stroke-linecap="round" stroke-linejoin="round"/>
</svg>
